<svg width="57" height="57" viewBox="0 0 57 57" fill="none" xmlns="http://www.w3.org/2000/svg">
<path d="M31.35 25.65V14.25H25.65V25.65H14.25V31.35H25.65V42.75H31.35V31.35H42.75V25.65H31.35ZM28.5 57C20.9413 57 13.6922 53.9973 8.34746 48.6525C3.00267 43.3078 0 36.0587 0 28.5C0 20.9413 3.00267 13.6922 8.34746 8.34746C13.6922 3.00267 20.9413 0 28.5 0C36.0587 0 43.3078 3.00267 48.6525 8.34746C53.9973 13.6922 57 20.9413 57 28.5C57 36.0587 53.9973 43.3078 48.6525 48.6525C43.3078 53.9973 36.0587 57 28.5 57Z" fill="#4978F0"/>
</svg>
